<svg xmlns="http://www.w3.org/2000/svg" viewBox="0 0 191.32 62.23"><defs><style>.cls-1{fill:#811999;}</style></defs><g id="Layer_2" data-name="Layer 2"><g id="logo-main"><path class="cls-1" d="M66.58,34.44v27H52.81V37.6q0-3.89-1.5-5.43a5.35,5.35,0,0,0-4-1.53,6.86,6.86,0,0,0-3.68,1,6.43,6.43,0,0,0-2.55,3,12.6,12.6,0,0,0-.89,5.1V48H26.41V37.6c0-2.59-.52-4.4-1.54-5.43a5.4,5.4,0,0,0-4-1.53,6.88,6.88,0,0,0-3.53,1,6.7,6.7,0,0,0-2.63,3,12.74,12.74,0,0,0-1,5.39V61.41H0V20.91H12.66l.06,7.86a14.34,14.34,0,0,1,5.46-6.48,15.13,15.13,0,0,1,8.15-2.19,14.77,14.77,0,0,1,7.85,2,12.13,12.13,0,0,1,4.94,6A13.49,13.49,0,0,1,47.22,21a17.15,17.15,0,0,1,5.51-.9,15.44,15.44,0,0,1,7.13,1.58,11.86,11.86,0,0,1,4.9,4.78A16,16,0,0,1,66.58,34.44Zm5.7-3.4,1.77-1.95a.67.67,0,0,0,.17-.49.67.67,0,0,0-.71-.65h0a.62.62,0,0,0-.48.22l-1.77,1.94a.74.74,0,0,0-.18.49.67.67,0,0,0,.23.48.65.65,0,0,0,.46.18A.69.69,0,0,0,72.28,31Zm-6-10.39,2.6-.35a.69.69,0,0,0,.59-.77.71.71,0,0,0-.76-.59l-2.61.35a.69.69,0,0,0-.46.27.64.64,0,0,0-.13.5.67.67,0,0,0,.26.46.71.71,0,0,0,.42.14Zm4.83-10.3a.7.7,0,0,0,.43-.3.68.68,0,0,0,.09-.52.7.7,0,0,0-.3-.43L69.13,7.7a.7.7,0,0,0-.37-.11l-.15,0a.66.66,0,0,0-.43.3.69.69,0,0,0,.21.95l2.22,1.4a.69.69,0,0,0,.36.11Zm8.11-6.24a.64.64,0,0,0,.4-.34.63.63,0,0,0,0-.52L78.89.75a.68.68,0,0,0-.34-.4.72.72,0,0,0-.32-.08A.76.76,0,0,0,78,.3a.74.74,0,0,0-.4.34.7.7,0,0,0,0,.53l.8,2.5a.69.69,0,0,0,.65.48A.78.78,0,0,0,79.24,4.11ZM97,11.33l2.33-1.22a.71.71,0,0,0,.29-.93.73.73,0,0,0-.41-.34l-.21,0a.68.68,0,0,0-.31.08L96.4,10.11a.65.65,0,0,0-.33.41.68.68,0,0,0,.45.85.51.51,0,0,0,.2,0A.69.69,0,0,0,97,11.33Zm4.28,10.18a.69.69,0,0,0-.53-.82l-2.56-.56-.15,0a.69.69,0,0,0-.67.55.66.66,0,0,0,.1.51.61.61,0,0,0,.43.3l2.56.56.15,0A.69.69,0,0,0,101.32,21.51ZM89.46,4.5a.67.67,0,0,0,.37-.37l1-2.43a.67.67,0,0,0,0-.52A.71.71,0,0,0,90.45.8a.75.75,0,0,0-.26-.05.58.58,0,0,0-.26.06.67.67,0,0,0-.37.37l-1,2.43a.67.67,0,0,0,0,.52.66.66,0,0,0,.38.37.59.59,0,0,0,.52,0Zm4.79,27.67a.66.66,0,0,0,.42-.15.67.67,0,0,0,.26-.45.66.66,0,0,0-.14-.51L93.19,29a.69.69,0,0,0-.55-.27.68.68,0,0,0-.42.15.69.69,0,0,0-.12,1l1.61,2.08a.67.67,0,0,0,.45.26ZM126.93,0V26a15,15,0,0,0-3-4.41A12,12,0,0,0,115,18.24a15.8,15.8,0,0,0-8.87,2.51,16.52,16.52,0,0,0-6,7.21A27.58,27.58,0,0,0,98,39.46a27.81,27.81,0,0,0,2.07,11.26,15.9,15.9,0,0,0,5.83,7.16,15.64,15.64,0,0,0,8.79,2.48,14.14,14.14,0,0,0,6.92-1.67,13.87,13.87,0,0,0,5-4.65,15.12,15.12,0,0,0,1.24-2.36l.51,7.87H140.7V0ZM126,45.21A7.93,7.93,0,0,1,123.48,49a6.47,6.47,0,0,1-4,1.25,6.66,6.66,0,0,1-5.59-2.63c-1.35-1.76-2-4.52-2-8.3s.69-6.55,2.07-8.31a6.77,6.77,0,0,1,5.63-2.63,6.46,6.46,0,0,1,4,1.26,7.65,7.65,0,0,1,2.51,3.64,17.51,17.51,0,0,1,.85,5.79A18.65,18.65,0,0,1,126,45.21ZM188.6,29.79a17.92,17.92,0,0,0-7.53-7.21,26.42,26.42,0,0,0-22.31,0,17.93,17.93,0,0,0-7.58,7.21,22.52,22.52,0,0,0-2.71,11.38,22.52,22.52,0,0,0,2.71,11.38,17.93,17.93,0,0,0,7.58,7.21,26.42,26.42,0,0,0,22.31,0,17.92,17.92,0,0,0,7.53-7.21,22.53,22.53,0,0,0,2.72-11.38A22.53,22.53,0,0,0,188.6,29.79Zm-12,17.82a7.21,7.21,0,0,1-2.6,3.64,7,7,0,0,1-4.13,1.18,6.93,6.93,0,0,1-4-1.18,7.25,7.25,0,0,1-2.59-3.64,19.45,19.45,0,0,1-.89-6.44,19.8,19.8,0,0,1,.89-6.48A7.11,7.11,0,0,1,165.8,31a7.2,7.2,0,0,1,4-1.13A7.31,7.31,0,0,1,174,31a7.06,7.06,0,0,1,2.6,3.65,19.8,19.8,0,0,1,.89,6.48A19.45,19.45,0,0,1,176.58,47.61Zm-94-41A11.23,11.23,0,0,0,72,17.43a11.08,11.08,0,0,0,4.19,9v35H90.07v-35a11,11,0,0,0,4.19-8.67A11.16,11.16,0,0,0,82.54,6.6ZM83.1,22a4.5,4.5,0,1,1,4.5-4.5A4.5,4.5,0,0,1,83.1,22Z"/></g></g></svg>