<?xml version="1.0" encoding="utf-8"?>
<!-- Generator: Adobe Illustrator 28.0.0, SVG Export Plug-In . SVG Version: 6.00 Build 0)  -->
<svg version="1.1" id="Layer_1" xmlns="http://www.w3.org/2000/svg" xmlns:xlink="http://www.w3.org/1999/xlink" x="0px" y="0px"
	 viewBox="0 0 191.3 62.2" style="enable-background:new 0 0 191.3 62.2;" xml:space="preserve">
<style type="text/css">
	.st0{fill:#FF8500;}
</style>
<g id="Layer_2_00000105397305025950675370000010189263200782378912_">
	<g id="logo-main">
		<path class="st0" d="M66.6,34.4v27H52.8V37.6c0-2.6-0.5-4.4-1.5-5.4c-1.1-1-2.5-1.6-4-1.5c-1.3,0-2.6,0.3-3.7,1
			c-1.1,0.7-2,1.8-2.5,3c-0.6,1.6-0.9,3.4-0.9,5.1V48H26.4V37.6c0-2.6-0.5-4.4-1.5-5.4c-1.1-1-2.5-1.6-4-1.5c-1.2,0-2.5,0.4-3.5,1
			c-1.2,0.7-2.1,1.8-2.6,3c-0.7,1.7-1.1,3.5-1,5.4v21.4H0V20.9h12.7l0.1,7.9c1.1-2.7,3-4.9,5.5-6.5c2.5-1.5,5.3-2.2,8.1-2.2
			c2.8-0.1,5.5,0.6,7.9,2c2.3,1.4,4,3.5,4.9,6c1.6-3.4,4.5-6,8.1-7.1c1.8-0.6,3.6-0.9,5.5-0.9c2.5-0.1,4.9,0.5,7.1,1.6
			c2.1,1.1,3.8,2.7,4.9,4.8C66,28.9,66.7,31.7,66.6,34.4z M72.3,31l1.8-2c0.1-0.1,0.2-0.3,0.2-0.5c0-0.4-0.3-0.7-0.7-0.7
			c0,0,0,0,0,0l0,0c-0.2,0-0.4,0.1-0.5,0.2l-1.8,1.9c-0.1,0.1-0.2,0.3-0.2,0.5c0,0.2,0.1,0.4,0.2,0.5c0.1,0.1,0.3,0.2,0.5,0.2
			C72,31.3,72.2,31.2,72.3,31L72.3,31z M66.3,20.6l2.6-0.4c0.4-0.1,0.6-0.4,0.6-0.8c-0.1-0.4-0.4-0.6-0.8-0.6l-2.6,0.4
			c-0.2,0-0.3,0.1-0.5,0.3c-0.1,0.1-0.2,0.3-0.1,0.5c0,0.2,0.1,0.3,0.3,0.5C65.9,20.6,66,20.7,66.3,20.6L66.3,20.6z M71.1,10.3
			c0.2,0,0.3-0.1,0.4-0.3c0.1-0.2,0.1-0.3,0.1-0.5c0-0.2-0.1-0.3-0.3-0.4l-2.2-1.4c-0.1-0.1-0.2-0.1-0.4-0.1h-0.2
			c-0.2,0-0.3,0.1-0.4,0.3c-0.2,0.3-0.1,0.7,0.2,1l2.2,1.4c0.1,0.1,0.2,0.1,0.4,0.1L71.1,10.3z M79.2,4.1c0.2-0.1,0.3-0.2,0.4-0.3
			c0.1-0.2,0.1-0.4,0-0.5l-0.7-2.5c-0.1-0.2-0.2-0.3-0.3-0.4c-0.1-0.1-0.2-0.1-0.3-0.1c-0.1,0-0.2,0-0.2,0c-0.2,0.1-0.3,0.2-0.4,0.3
			c-0.1,0.2-0.1,0.4,0,0.5l0.8,2.5c0.1,0.3,0.4,0.5,0.7,0.5C79.1,4.1,79.2,4.1,79.2,4.1L79.2,4.1z M97,11.3l2.3-1.2
			c0.3-0.2,0.5-0.6,0.3-0.9c-0.1-0.2-0.2-0.3-0.4-0.3H99c-0.1,0-0.2,0-0.3,0.1l-2.3,1.2c-0.2,0.1-0.3,0.2-0.3,0.4
			c-0.1,0.4,0.1,0.7,0.4,0.8c0,0,0,0,0,0c0.1,0,0.1,0,0.2,0C96.8,11.4,96.9,11.4,97,11.3z M101.3,21.5c0.1-0.4-0.2-0.7-0.5-0.8
			c0,0,0,0,0,0l-2.6-0.6H98c-0.3,0-0.6,0.2-0.7,0.5c0,0.2,0,0.4,0.1,0.5c0.1,0.2,0.2,0.3,0.4,0.3l2.6,0.6h0.2
			C100.9,22.1,101.2,21.8,101.3,21.5L101.3,21.5z M89.5,4.5c0.2-0.1,0.3-0.2,0.4-0.4l1-2.4c0.1-0.2,0.1-0.4,0-0.5
			c-0.1-0.2-0.2-0.3-0.4-0.4c-0.1,0-0.2,0-0.3-0.1c-0.1,0-0.2,0-0.3,0.1c-0.2,0.1-0.3,0.2-0.4,0.4l-1,2.4c-0.1,0.2-0.1,0.4,0,0.5
			c0.1,0.2,0.2,0.3,0.4,0.4C89.1,4.6,89.3,4.6,89.5,4.5L89.5,4.5z M94.2,32.2c0.2,0,0.3-0.1,0.4-0.2c0.1-0.1,0.2-0.3,0.3-0.5
			c0-0.2,0-0.4-0.1-0.5L93.2,29c-0.1-0.2-0.3-0.3-0.6-0.3c-0.2,0-0.3,0.1-0.4,0.1c-0.3,0.2-0.4,0.7-0.1,1c0,0,0,0,0,0l1.6,2.1
			C93.8,32.1,94,32.2,94.2,32.2L94.2,32.2z M126.9,0v26c-0.7-1.6-1.7-3.1-3-4.4c-2.4-2.3-5.6-3.5-8.9-3.4c-3.1-0.1-6.2,0.8-8.9,2.5
			c-2.7,1.8-4.7,4.3-6,7.2c-1.5,3.6-2.3,7.6-2.1,11.5c-0.1,3.9,0.6,7.7,2.1,11.3c1.2,2.9,3.2,5.4,5.8,7.2c2.6,1.7,5.7,2.5,8.8,2.5
			c2.4,0,4.8-0.5,6.9-1.7c2-1.1,3.7-2.7,5-4.7c0.5-0.7,0.9-1.5,1.2-2.4l0.5,7.9h12.3V0H126.9z M126,45.2c-0.5,1.5-1.3,2.8-2.5,3.8
			c-1.2,0.8-2.6,1.3-4,1.2c-2.2,0.1-4.3-0.9-5.6-2.6c-1.3-1.8-2-4.5-2-8.3s0.7-6.5,2.1-8.3c1.3-1.7,3.4-2.7,5.6-2.6
			c1.4,0,2.8,0.4,4,1.3c1.2,0.9,2,2.2,2.5,3.6c0.6,1.9,0.9,3.8,0.8,5.8C127,41.2,126.7,43.2,126,45.2z M188.6,29.8
			c-1.7-3.1-4.4-5.6-7.5-7.2c-7.1-3.3-15.2-3.3-22.3,0c-3.2,1.6-5.8,4.1-7.6,7.2c-1.9,3.5-2.8,7.4-2.7,11.4c-0.1,4,0.8,7.9,2.7,11.4
			c1.8,3.1,4.4,5.6,7.6,7.2c7.1,3.3,15.2,3.3,22.3,0c3.2-1.6,5.8-4.1,7.5-7.2c1.9-3.5,2.8-7.4,2.7-11.4
			C191.4,37.2,190.5,33.3,188.6,29.8z M176.6,47.6c-0.5,1.5-1.4,2.7-2.6,3.6c-1.2,0.8-2.7,1.2-4.1,1.2c-1.4,0-2.8-0.4-4-1.2
			c-1.2-0.9-2.1-2.2-2.6-3.6c-0.7-2.1-1-4.3-0.9-6.4c-0.1-2.2,0.2-4.4,0.9-6.5c0.4-1.5,1.3-2.8,2.5-3.7c1.2-0.8,2.6-1.2,4-1.1
			c1.5-0.1,2.9,0.3,4.2,1.1c1.2,0.9,2.2,2.2,2.6,3.7c0.7,2.1,1,4.3,0.9,6.5C177.6,43.3,177.2,45.5,176.6,47.6L176.6,47.6z M82.6,6.6
			c-5.8,0.3-10.4,5-10.6,10.8c-0.1,3.5,1.5,6.8,4.2,9v35h13.9v-35c2.7-2.1,4.2-5.3,4.2-8.7c0-6.2-5-11.2-11.1-11.2
			C82.9,6.6,82.7,6.6,82.6,6.6L82.6,6.6z M83.1,22c-2.5,0-4.5-2-4.5-4.5s2-4.5,4.5-4.5s4.5,2,4.5,4.5S85.6,22,83.1,22z"/>
	</g>
</g>
</svg>
